<svg xmlns="http://www.w3.org/2000/svg" version="1.1" xmlns:xlink="http://www.w3.org/1999/xlink" xmlns:svgjs="http://svgjs.com/svgjs" width="1440" height="560" preserveAspectRatio="none" viewBox="0 0 1440 560"><g mask="url(&quot;#SvgjsMask1020&quot;)" fill="none"><path d="M 0,104 C 41.2,86.2 123.6,13.6 206,15 C 288.4,16.4 329.6,104 412,111 C 494.4,118 535.6,52.4 618,50 C 700.4,47.6 741.6,104.2 824,99 C 906.4,93.8 947.6,11.8 1030,24 C 1112.4,36.2 1154,155.8 1236,160 C 1318,164.2 1399.2,68 1440,45L1440 560L0 560z" fill="rgba(51, 62, 190, 1)"></path><path d="M 0,327 C 57.6,298.6 172.8,192.2 288,185 C 403.2,177.8 460.8,284.8 576,291 C 691.2,297.2 748.8,217.6 864,216 C 979.2,214.4 1036.8,278.8 1152,283 C 1267.2,287.2 1382.4,246.2 1440,237L1440 560L0 560z" fill="rgba(56, 122, 191, 1)"></path><path d="M 0,472 C 57.6,461.4 172.8,414 288,419 C 403.2,424 460.8,495.6 576,497 C 691.2,498.4 748.8,420.8 864,426 C 979.2,431.2 1036.8,519.2 1152,523 C 1267.2,526.8 1382.4,460.6 1440,445L1440 560L0 560z" fill="rgba(53, 108, 167, 1)"></path></g><defs><mask id="SvgjsMask1020"><rect width="1440" height="560" fill="#ffffff"></rect></mask></defs></svg>